<?xml version="1.0" standalone="no"?>
<!DOCTYPE svg PUBLIC "-//W3C//DTD SVG 20010904//EN"
 "http://www.w3.org/TR/2001/REC-SVG-20010904/DTD/svg10.dtd">
<svg version="1.0" xmlns="http://www.w3.org/2000/svg"
 width="280.000000pt" height="280.000000pt" viewBox="0 0 280.000000 280.000000"
 preserveAspectRatio="xMidYMid meet">

<g transform="translate(0.000000,280.000000) scale(0.100000,-0.100000)"
fill="#000000" stroke="none">
<path d="M0 1400 l0 -1400 1400 0 1400 0 0 1400 0 1400 -1400 0 -1400 0 0
-1400z m2400 447 l0 -124 -66 -12 c-84 -15 -133 -40 -184 -93 -52 -54 -80
-130 -80 -213 0 -166 112 -292 275 -311 l55 -7 0 -123 0 -124 -55 0 c-71 0
-194 25 -266 55 -258 105 -393 361 -335 636 54 254 297 434 594 438 l62 1 0
-123z m-900 -27 l0 -120 -387 -2 -388 -3 -3 -72 -3 -71 308 -4 c334 -4 352 -7
436 -65 164 -114 167 -406 6 -533 -92 -73 -97 -74 -611 -78 l-458 -3 0 535 0
536 550 0 550 0 0 -120z"/>
<path d="M720 1225 l0 -85 245 0 c272 0 294 4 314 60 12 37 1 72 -31 94 -19
14 -60 16 -275 16 l-253 0 0 -85z"/>
</g>
</svg>
